<?xml version="1.0" encoding="utf-8"?>
<!-- Generator: Adobe Illustrator 27.1.1, SVG Export Plug-In . SVG Version: 6.00 Build 0)  -->
<svg version="1.1" id="Layer_1" xmlns="http://www.w3.org/2000/svg" xmlns:xlink="http://www.w3.org/1999/xlink" x="0px" y="0px"
	 viewBox="0 0 14.2 14.3" style="enable-background:new 0 0 14.2 14.3;" xml:space="preserve">
<style type="text/css">
	.st0{fill:#50C1B4;}
	.st1{fill:#FFFFFF;}
	.st2{fill:#F390BC;stroke:#F390BC;stroke-width:0.25;stroke-miterlimit:10;}
</style>
<g>
	<g>
		<g>
			<path class="st0" d="M7.6,14.2L7.6,14.2H5c-0.1,0-0.3-0.1-0.3-0.2c-0.1-0.1-0.1-0.2-0.1-0.4l1.3-9.7c0-0.2,0.2-0.4,0.5-0.4h5.3
				c0.2,0,0.4,0.2,0.5,0.4l1,9.7c0,0.1,0,0.3-0.1,0.4c-0.1,0.1-0.2,0.2-0.3,0.2H10c-0.2,0-0.4-0.2-0.5-0.4L8.8,9.9L8,13.8
				C8,14,7.8,14.2,7.6,14.2z M5.5,13.2h1.7l1.2-6.4c0-0.2,0.2-0.4,0.5-0.4l0,0c0.2,0,0.4,0.2,0.4,0.4l0.8,6.3H12l-0.9-8.7H6.6
				L5.5,13.2z"/>
		</g>
		<g>
			<g id="XMLID_00000164485856927783116530000014855646169877169315_">
				<g>
					<path class="st1" d="M5.9,1.6c-0.5,0-1-0.2-1.3-0.7c0.8,0.2,1.5,0.2,2.3,0C6.7,1.3,6.3,1.5,5.9,1.6z"/>
					<path class="st1" d="M3.8,0.8c0.4,1,1.1,1.5,2,1.4c0.9,0,1.5-0.5,1.8-1.4l3,0.9l-0.3,1.6H10c-0.4,0-0.7,0-1.1,0
						c-0.1,0-0.2,0-0.4,0.1c0,0.1,0,0.3,0,0.4c0,1.2,0,2.4,0,3.7v1.3H3V7.5C3,6.3,3,5,3,3.8c0-0.1,0-0.3-0.1-0.4
						C2.8,3.3,2.6,3.3,2.5,3.3c-0.4,0-0.7,0-1.1,0H1.1L0.8,1.8L3.8,0.8z"/>
					<path class="st2" d="M4.3,0.2c1,0.4,1.9,0.4,2.9,0c0.1,0,0.3-0.1,0.4,0c0.6,0.2,1.3,0.4,1.9,0.6C10,1,10.5,1.1,11,1.3
						c0.2,0.1,0.4,0.2,0.3,0.5C11.2,2.4,11.1,3,11,3.7c0,0.3-0.2,0.4-0.5,0.4l0,0c-0.4,0-0.7,0-1.1,0H9.1V9c0,0.5-0.1,0.5-0.5,0.5
						H2.9C2.5,9.5,2.4,9.4,2.4,9V4H2.1c-0.3,0-0.7,0-1,0C0.7,4,0.6,3.9,0.5,3.5C0.4,3,0.3,2.4,0.2,1.7c-0.1-0.3,0-0.4,0.3-0.5
						l1.2-0.4c0.8-0.2,1.5-0.4,2.2-0.7C4.1,0.1,4.2,0.1,4.3,0.2z M5.9,2.2c-1,0-1.7-0.4-2-1.4l-3.1,1l0.3,1.6h0.3c0.4,0,0.7,0,1.1,0
						c0.1,0,0.3,0,0.4,0.1C3,3.6,3,3.8,3,3.9c0,1.2,0,2.5,0,3.7v1.3h5.5V7.5c0-1.2,0-2.4,0-3.7c0-0.1,0-0.3,0.1-0.4S8.9,3.3,9,3.3
						c0.4,0,0.7,0,1.1,0h0.3l0.3-1.6l-3-0.9C7.4,1.7,6.8,2.2,5.9,2.2z M4.6,0.9c0.3,0.5,0.8,0.7,1.3,0.7S6.8,1.3,7,1
						C6.2,1.2,5.4,1.2,4.6,0.9z"/>
				</g>
			</g>
		</g>
	</g>
</g>
</svg>
