<?xml version="1.0" encoding="utf-8"?>
<!-- Generator: Adobe Illustrator 27.1.1, SVG Export Plug-In . SVG Version: 6.00 Build 0)  -->
<svg version="1.1" id="Layer_1" xmlns="http://www.w3.org/2000/svg" xmlns:xlink="http://www.w3.org/1999/xlink" x="0px" y="0px"
	 viewBox="0 0 45.5 43.9" style="enable-background:new 0 0 45.5 43.9;" xml:space="preserve">
<style type="text/css">
	.st0{fill:#FD78FD;}
</style>
<g>
	<g>
		<g>
			<path class="st0" d="M40.8,26.7c2.1-1.8,3.5-4.4,3.5-7.4c0-5.3-4.3-9.7-9.7-9.7c-0.7,0-1.4,0.1-2.1,0.2c0-0.1,0-0.2,0-0.3
				c0-5-4.1-9.1-9.1-9.1s-9.1,4.1-9.1,9.1c0,0.2,0,0.4,0.1,0.6c-1-0.3-2.1-0.6-3.2-0.6c-5.3,0-9.7,4.3-9.7,9.7
				c0,2.9,1.3,5.4,3.3,7.2c-3,2.1-5,5.6-5,9.5v8h23.1l0,0h22.3v-8.5C45.3,31.9,43.5,28.7,40.8,26.7z M23.4,4.4
				c3.2,0,5.7,2.6,5.7,5.7s-2.6,5.7-5.7,5.7c-3.2,0-5.7-2.6-5.7-5.7S20.2,4.4,23.4,4.4z M23,43.2c-0.2,0-0.3,0-0.5,0
				c-0.9-0.1-1.7-0.5-2.5-1.1c-0.7-0.6-1.5-1.3-2.2-1.9H3.7v-4.1c0-3.8,2.8-6.9,6.4-7.5c0.1-1.1,0.4-2.2,0.9-3.3h-0.1
				c-3.2,0-5.7-2.6-5.7-5.7c0-2,1.1-3.8,2.6-4.8c1-0.7,2.1-1.1,3.4-1.1c3.2,0,5.7,2.6,5.7,5.7c0,0.3,0,0.7-0.1,1
				c0.7-0.2,1.4-0.2,2.2-0.2c1.4,0.1,2.7,0.5,3.9,1.2c1.4-0.9,2.9-1.3,4.5-1.3c0.5,0,1,0.1,1.5,0.2c0-0.3-0.1-0.6-0.1-0.9
				c0-1.6,0.6-3,1.7-4.1c1-1,2.5-1.7,4.1-1.7c1.3,0,2.4,0.4,3.4,1.1c0.5,0.4,1,0.9,1.4,1.4c0.6,0.9,1,2,1,3.2s-0.4,2.3-1,3.2
				c-0.7,1-1.7,1.8-2.9,2.2l0,0C36,24.9,35.4,25,34.8,25c0.4,1,0.8,2,0.9,3.1l0,0c0,0.2,0,0.3,0,0.5c3.2,0.7,5.6,3.5,5.6,6.9v4.6
				h-13l-2.6,2C24.7,43,23.7,43.2,23,43.2z"/>
		</g>
		<g>
			<path class="st0" d="M28.6,34.9c1-0.8,2.1-1.6,2.7-2.8c0.4-0.8,0.6-1.8,0.6-2.7c0-0.2,0-0.5-0.1-0.7c-0.2-1.2-0.6-2.3-1.4-3.2
				c-0.8-0.9-1.9-1.5-3.1-1.5c-1.9,0-3.6,1.4-4.5,3.2c-0.5-1.7-2.2-3-4-3.1c-4.2-0.2-6.1,5.4-3.9,8.5c0.8,1.2,2,2,3.1,2.8
				c1.6,1.2,3.2,2.4,4.6,3.7c0.1,0.1,0.2,0.1,0.2,0.1c0.1,0,0.2-0.1,0.3-0.1C25,37.7,26.8,36.3,28.6,34.9z"/>
		</g>
	</g>
</g>
</svg>
