<?xml version="1.0" encoding="utf-8"?>
<!-- Generator: Adobe Illustrator 27.1.1, SVG Export Plug-In . SVG Version: 6.00 Build 0)  -->
<svg version="1.1" id="Layer_1" xmlns="http://www.w3.org/2000/svg" xmlns:xlink="http://www.w3.org/1999/xlink" x="0px" y="0px"
	 viewBox="0 0 15.3 14.3" style="enable-background:new 0 0 15.3 14.3;" xml:space="preserve">
<style type="text/css">
	.st0{fill:none;}
	.st1{fill:#00B8EF;}
</style>
<g>
	<g>
		<polygon class="st0" points="3.3,5.7 3.3,12.6 12,12.6 12,5.7 7.6,2 		"/>
		<path class="st1" d="M15,6L8.2,0.3C7.9,0,7.4,0,7.1,0.3L0.3,6c-0.4,0.3-0.4,0.8-0.1,1.2C0.5,7.5,1,7.6,1.4,7.3l0.2-0.2v6.4
			c0,0.5,0.4,0.8,0.8,0.8h10.4c0.5,0,0.8-0.4,0.8-0.8V7.1l0.2,0.2c0.2,0.1,0.3,0.2,0.5,0.2s0.5-0.1,0.6-0.3C15.4,6.8,15.3,6.3,15,6z
			 M12,12.6H3.3v-7l4.4-3.7L12,5.7V12.6z"/>
	</g>
</g>
</svg>
