<?xml version="1.0" encoding="utf-8"?>
<!-- Generator: Adobe Illustrator 27.1.1, SVG Export Plug-In . SVG Version: 6.00 Build 0)  -->
<svg version="1.1" id="Layer_1" xmlns="http://www.w3.org/2000/svg" xmlns:xlink="http://www.w3.org/1999/xlink" x="0px" y="0px"
	 viewBox="0 0 17 17" style="enable-background:new 0 0 17 17;" xml:space="preserve">
<style type="text/css">
	.st0{fill:#F390BC;}
</style>
<g>
	<path class="st0" d="M8.6,0C3.9,0,0.1,3.8,0.1,8.5S3.9,17,8.6,17s8.5-3.8,8.5-8.5S13.2,0,8.6,0z M8.6,14.8c-1.9,0-3.5-0.8-4.7-2.1
		c0-0.3,0-0.5,0-0.6c0-1.5,1.2-2.7,2.7-2.7l0,0C6.1,8.9,5.8,8.3,5.8,7.5C5.8,6,7,4.8,8.5,4.8s2.7,1.2,2.7,2.7c0,0.7-0.3,1.4-0.8,1.9
		h0.1c1.6,0,2.5,1.6,2.8,3.2C12.2,13.9,10.5,14.8,8.6,14.8z"/>
</g>
</svg>
