<?xml version="1.0" encoding="utf-8"?>
<!-- Generator: Adobe Illustrator 27.1.1, SVG Export Plug-In . SVG Version: 6.00 Build 0)  -->
<svg version="1.1" id="Layer_1" xmlns="http://www.w3.org/2000/svg" xmlns:xlink="http://www.w3.org/1999/xlink" x="0px" y="0px"
	 viewBox="0 0 17 22" style="enable-background:new 0 0 17 22;" xml:space="preserve">
<style type="text/css">
	.st0{fill:#010101;}
	.st1{font-family:'Avenir-Medium';}
	.st2{font-size:4.9935px;}
	.st3{fill:#50C1B4;}
	.st4{fill:#FFFFFF;}
	.st5{fill:#F390BC;stroke:#F390BC;stroke-width:0.25;stroke-miterlimit:10;}
</style>
<g>
	<text transform="matrix(1 0 0 1 1.1524 20.913)" class="st0 st1 st2">Closet</text>
	<g>
		<g>
			<path class="st3" d="M8.8,14.8C8.8,14.8,8.8,14.8,8.8,14.8l-2.6,0c-0.1,0-0.3-0.1-0.3-0.2c-0.1-0.1-0.1-0.2-0.1-0.4l1.3-9.7
				c0-0.2,0.2-0.4,0.5-0.4h5.3c0.2,0,0.4,0.2,0.5,0.4l1,9.7c0,0.1,0,0.3-0.1,0.4c-0.1,0.1-0.2,0.2-0.3,0.2h-2.8
				c-0.2,0-0.4-0.2-0.5-0.4L10,10.5l-0.8,3.9C9.2,14.6,9,14.8,8.8,14.8z M6.7,13.8l1.7,0l1.2-6.4c0-0.2,0.2-0.4,0.5-0.4c0,0,0,0,0,0
				c0.2,0,0.4,0.2,0.4,0.4l0.8,6.3h1.9L12.3,5H7.8L6.7,13.8z"/>
		</g>
		<g>
			<g id="XMLID_00000164485856927783116530000014855646169877169315_">
				<g>
					<path class="st4" d="M7.1,2.2C6.6,2.2,6.1,2,5.8,1.5c0.8,0.2,1.5,0.2,2.3,0C7.9,1.9,7.5,2.1,7.1,2.2z"/>
					<path class="st4" d="M5,1.4c0.4,1,1.1,1.5,2,1.4c0.9,0,1.5-0.5,1.8-1.4l3,0.9l-0.3,1.6h-0.3c-0.4,0-0.7,0-1.1,0
						c-0.1,0-0.2,0-0.4,0.1C9.7,4.1,9.7,4.3,9.7,4.4c0,1.2,0,2.4,0,3.7v1.3H4.2V8.1c0-1.2,0-2.5,0-3.7c0-0.1,0-0.3-0.1-0.4
						C4,3.9,3.8,3.9,3.7,3.9c-0.4,0-0.7,0-1.1,0H2.3L2,2.4L5,1.4z"/>
					<path class="st5" d="M5.5,0.8c1,0.4,1.9,0.4,2.9,0c0.1,0,0.3-0.1,0.4,0c0.6,0.2,1.3,0.4,1.9,0.6c0.5,0.2,1,0.3,1.5,0.5
						c0.2,0.1,0.4,0.2,0.3,0.5c-0.1,0.6-0.2,1.2-0.3,1.9c0,0.3-0.2,0.4-0.5,0.4c0,0,0,0,0,0c-0.4,0-0.7,0-1.1,0l-0.3,0v4.9
						c0,0.5-0.1,0.5-0.5,0.5H4.1c-0.4,0-0.5-0.1-0.5-0.5V4.6l-0.3,0c-0.3,0-0.7,0-1,0c-0.4,0-0.5-0.1-0.6-0.5C1.6,3.6,1.5,3,1.4,2.3
						C1.3,2,1.4,1.9,1.7,1.8l1.2-0.4C3.7,1.2,4.4,1,5.1,0.7C5.3,0.7,5.4,0.7,5.5,0.8z M7.1,2.8c-1,0-1.7-0.4-2-1.4L2,2.4l0.3,1.6
						h0.3c0.4,0,0.7,0,1.1,0c0.1,0,0.3,0,0.4,0.1c0.1,0.1,0.1,0.3,0.1,0.4c0,1.2,0,2.5,0,3.7v1.3h5.5V8.1c0-1.2,0-2.4,0-3.7
						c0-0.1,0-0.3,0.1-0.4c0.1-0.1,0.3-0.1,0.4-0.1c0.4,0,0.7,0,1.1,0h0.3l0.3-1.6l-3-0.9C8.6,2.3,8,2.8,7.1,2.8z M5.8,1.5
						C6.1,2,6.6,2.2,7.1,2.2c0.5,0,0.9-0.3,1.1-0.6C7.4,1.8,6.6,1.8,5.8,1.5z"/>
				</g>
			</g>
		</g>
	</g>
</g>
</svg>
