<?xml version="1.0" encoding="utf-8"?>
<!-- Generator: Adobe Illustrator 27.1.1, SVG Export Plug-In . SVG Version: 6.00 Build 0)  -->
<svg version="1.1" id="Layer_1" xmlns="http://www.w3.org/2000/svg" xmlns:xlink="http://www.w3.org/1999/xlink" x="0px" y="0px"
	 viewBox="0 0 17 22" style="enable-background:new 0 0 17 22;" xml:space="preserve">
<style type="text/css">
	.st0{fill:#B2D235;}
	.st1{fill:#010101;}
	.st2{font-family:'Avenir-Medium';}
	.st3{font-size:4.9935px;}
</style>
<g>
	<g>
		<g>
			<path class="st0" d="M13.3,8c0,3.1-2.5,5.6-5.6,5.6S2.1,11.1,2.1,8c0-3.1,2.5-5.6,5.6-5.6c0.8,0,1.6,0.2,2.3,0.5L9.8,1.8
				C9.2,1.5,8.5,1.4,7.7,1.4C4.1,1.4,1.1,4.4,1.1,8s2.9,6.6,6.6,6.6s6.6-2.9,6.6-6.6c0-0.5-0.1-1-0.2-1.5L13,6.2
				C13.2,6.7,13.3,7.3,13.3,8z"/>
		</g>
		<g>
			<path class="st0" d="M3.3,8c0,2.4,2,4.4,4.4,4.4s4.4-2,4.4-4.4c0-0.5-0.1-1-0.3-1.4l-0.8,0.7c0,0.2,0.1,0.5,0.1,0.7
				c0,0.1,0,0.2,0,0.3c0,0.2,0,0.4,0,0.6c0,0.5-0.3,1-0.6,1.5c-0.1,0.1-0.1,0.2-0.2,0.2c-0.3,0.3-0.7,0.5-1.1,0.7
				c-0.1,0-0.3,0.1-0.4,0.1c-0.3,0.1-0.7,0.2-1.1,0.2c-1.9,0-3.5-1.6-3.5-3.5c0-0.7,0.2-1.4,0.6-1.9c0.3-0.7,1-1.2,1.7-1.4
				c0.1,0,0.3-0.1,0.4-0.1c0,0,0,0,0,0c0,0,0.1,0,0.1,0c0.2,0,0.4-0.1,0.6-0.1c0.4,0,0.8,0.1,1.1,0.2L9.6,4C9.1,3.7,8.4,3.5,7.7,3.5
				C5.3,3.5,3.3,5.5,3.3,8z"/>
		</g>
		<g>
			<path class="st0" d="M14.9,2.6l-1-1.1l-1,0.9l-0.3-1.6l-1.9,0.3L11.1,4L8.4,6.4C8.4,6.2,8.3,6.1,8.2,6C7.4,5,5.8,5.8,5.6,6.8
				c-0.1,0.4,0,0.8,0,1.2c0.1,0.6,0.1,1.2,0.1,1.7c0,0,0,0.1,0,0.1c0,0,0.1,0,0.1,0c0.7,0.1,1.3,0.2,2,0.3c0.4,0.1,0.8,0.1,1.1,0
				c0.3-0.1,0.5-0.2,0.7-0.4c0.1-0.1,0.1-0.1,0.1-0.2c0.2-0.3,0.4-0.6,0.4-0.9c0-0.3-0.1-0.7-0.3-1C9.8,7.6,9.6,7.5,9.4,7.4l2.8-2.5
				L15,5.7l0.5-1.9l-1.6-0.5L14.9,2.6z"/>
		</g>
	</g>
	<text transform="matrix(1 0 0 1 1.6148 21.0442)" class="st1 st2 st3">Goals</text>
</g>
</svg>
