<?xml version="1.0" encoding="utf-8"?>
<!-- Generator: Adobe Illustrator 27.1.1, SVG Export Plug-In . SVG Version: 6.00 Build 0)  -->
<svg version="1.1" id="Layer_1" xmlns="http://www.w3.org/2000/svg" xmlns:xlink="http://www.w3.org/1999/xlink" x="0px" y="0px"
	 viewBox="0 0 17 22" style="enable-background:new 0 0 17 22;" xml:space="preserve">
<style type="text/css">
	.st0{fill:none;}
	.st1{fill:#00B8EF;}
	.st2{fill:#010101;}
	.st3{font-family:'Avenir-Medium';}
	.st4{font-size:4.9935px;}
</style>
<g>
	<g>
		<polygon class="st0" points="4.3,6.3 4.3,13.2 13,13.2 13,6.3 8.6,2.6 		"/>
		<path class="st1" d="M16,6.6L9.2,0.9c-0.3-0.3-0.8-0.3-1.1,0L1.3,6.6C0.9,6.9,0.9,7.4,1.2,7.8C1.5,8.1,2,8.2,2.4,7.9l0.2-0.2v6.4
			c0,0.5,0.4,0.8,0.8,0.8h10.4c0.5,0,0.8-0.4,0.8-0.8V7.7l0.2,0.2c0.2,0.1,0.3,0.2,0.5,0.2c0.2,0,0.5-0.1,0.6-0.3
			C16.4,7.4,16.3,6.9,16,6.6z M13,13.2H4.3v-7l4.4-3.7L13,6.3V13.2z"/>
	</g>
	<text transform="matrix(1 0 0 1 2.4068 21.136)" class="st2 st3 st4">Home</text>
</g>
</svg>
