<?xml version="1.0" encoding="utf-8"?>
<!-- Generator: Adobe Illustrator 27.1.1, SVG Export Plug-In . SVG Version: 6.00 Build 0)  -->
<svg version="1.1" id="Layer_1" xmlns="http://www.w3.org/2000/svg" xmlns:xlink="http://www.w3.org/1999/xlink" x="0px" y="0px"
	 viewBox="0 0 17 22" style="enable-background:new 0 0 17 22;" xml:space="preserve">
<style type="text/css">
	.st0{fill:#50C1B4;}
	.st1{fill:#010101;}
	.st2{font-family:'Avenir-Medium';}
	.st3{font-size:4.9935px;}
</style>
<g>
	<g>
		<path class="st0" d="M14.5,0.9c-0.1-0.3-0.3-0.5-0.6-0.5H3.1c-0.3,0-0.5,0.2-0.6,0.4L0.4,6c0,0,0,0,0,0C0.3,6.3,0.2,6.6,0.2,7
			c0,0.9,0.7,1.7,1.6,2v5c0,0.4,0.3,0.7,0.7,0.7h11.8c0.4,0,0.7-0.3,0.7-0.7V8.8c0.7-0.3,1.3-1,1.3-1.9c0-0.3-0.1-0.6-0.2-0.9
			L14.5,0.9z M1.5,7c0-0.1,0-0.2,0.1-0.3c0.1-0.1,0.1-0.2,0.1-0.3l1.8-4.6h1.2L2.9,7.3C2.8,7.5,2.6,7.6,2.3,7.6
			C1.9,7.6,1.5,7.3,1.5,7z M7.6,1.7l0.1,5.7c0,0,0,0.1,0,0.1C7.3,7.7,6.8,7.6,6.6,7.3C6.5,7.1,6.3,7,6,7c0,0,0,0,0,0
			C5.8,7,5.6,7.1,5.4,7.3C5.2,7.7,4.6,7.7,4.3,7.4l1.9-5.7H7.6z M10.2,1.7l2,5.8c-0.3,0.2-0.7,0.1-1-0.2c-0.1-0.1-0.3-0.2-0.5-0.2
			c0,0,0,0,0,0c-0.2,0-0.4,0.1-0.5,0.2C9.9,7.7,9.3,7.7,9,7.4L8.9,1.7H10.2z M3.1,8.8c0.1-0.1,0.3-0.1,0.4-0.2
			c0.7,0.5,1.8,0.5,2.5,0c0.7,0.5,1.7,0.5,2.4,0c0.7,0.4,1.6,0.5,2.3,0c0.7,0.4,1.6,0.4,2.2,0c0.2,0.1,0.4,0.2,0.6,0.3v4.3H3.1V8.8z
			 M14.1,7.6c-0.2,0-0.4-0.1-0.6-0.3l-1.9-5.7h1.7l1.3,4.5c0,0.1,0,0.2,0.1,0.3c0.1,0.1,0.1,0.2,0.1,0.3C14.8,7.3,14.5,7.6,14.1,7.6
			z"/>
	</g>
	<text transform="matrix(1 0 0 1 0.5103 21.3229)" class="st1 st2 st3">Market</text>
</g>
</svg>
