<?xml version="1.0" encoding="utf-8"?>
<!-- Generator: Adobe Illustrator 27.1.1, SVG Export Plug-In . SVG Version: 6.00 Build 0)  -->
<svg version="1.1" id="Layer_1" xmlns="http://www.w3.org/2000/svg" xmlns:xlink="http://www.w3.org/1999/xlink" x="0px" y="0px"
	 viewBox="0 0 18.7 22" style="enable-background:new 0 0 18.7 22;" xml:space="preserve">
<style type="text/css">
	.st0{fill:#F390BC;}
</style>
<g>
	<path class="st0" d="M9.4,3.5c-4.7,0-8.5,3.8-8.5,8.5s3.8,8.5,8.5,8.5s8.5-3.8,8.5-8.5S14,3.5,9.4,3.5z M9.4,18.3
		c-1.9,0-3.5-0.8-4.7-2.1c0-0.3,0-0.5,0-0.6c0-1.5,1.2-2.7,2.7-2.7h0c-0.5-0.5-0.8-1.1-0.8-1.9c0-1.5,1.2-2.7,2.7-2.7
		c1.5,0,2.7,1.2,2.7,2.7c0,0.7-0.3,1.4-0.8,1.9h0.1c1.6,0,2.5,1.6,2.8,3.2C13,17.4,11.3,18.3,9.4,18.3z"/>
</g>
</svg>
