<?xml version="1.0" encoding="utf-8"?>
<!-- Generator: Adobe Illustrator 27.1.1, SVG Export Plug-In . SVG Version: 6.00 Build 0)  -->
<svg version="1.1" id="Layer_1" xmlns="http://www.w3.org/2000/svg" xmlns:xlink="http://www.w3.org/1999/xlink" x="0px" y="0px"
	 viewBox="0 0 47.8 47.7" style="enable-background:new 0 0 47.8 47.7;" xml:space="preserve">
<style type="text/css">
	.st0{fill:#009E96;}
	.st1{fill:#FFFFFF;}
</style>
<g>
	<circle class="st0" cx="23.8" cy="23.9" r="23.8"/>
</g>
<g>
	<path class="st1" d="M17.3,15.6l3.5-2.2c0.6-0.4,0.8-1.2,0.4-1.8c-0.4-0.6-1.2-0.8-1.8-0.4l-6.5,4.2c-0.6,0.4-0.8,1.1-0.4,1.7
		l3.7,6.7c0.2,0.4,0.7,0.7,1.2,0.7c0.2,0,0.4-0.1,0.6-0.2c0.6-0.4,0.9-1.2,0.5-1.8L16,18c2.7,0.6,8.9,2.5,11.7,7.5
		c2.2,3.7,2.1,8.5-0.2,14.2c-0.3,0.7,0.1,1.4,0.7,1.7c0.2,0.1,0.3,0.1,0.5,0.1c0.5,0,1-0.3,1.2-0.8c2.6-6.5,2.7-12.1,0.1-16.5
		C26.9,18.7,20.7,16.5,17.3,15.6z"/>
</g>
</svg>
