<?xml version="1.0" encoding="utf-8"?>
<!-- Generator: Adobe Illustrator 27.1.1, SVG Export Plug-In . SVG Version: 6.00 Build 0)  -->
<svg version="1.1" id="Layer_1" xmlns="http://www.w3.org/2000/svg" xmlns:xlink="http://www.w3.org/1999/xlink" x="0px" y="0px"
	 viewBox="0 0 37.6 33" style="enable-background:new 0 0 37.6 33;" xml:space="preserve">
<style type="text/css">
	.st0{display:none;}
	.st1{display:inline;}
	.st2{fill:#FF79FF;}
	.st3{fill:#FFFFFF;}
</style>
<g class="st0">
	<g class="st1">
		<polygon class="st2" points="2.6,16.3 16.8,26.7 33.4,2.9 22,-5.7 		"/>
	</g>
	<g class="st1">
		<path class="st3" d="M4.8,31.7c-0.3,0-0.5-0.1-0.8-0.2c-0.3-0.2-0.5-0.5-0.5-0.9L1.3,16.5c-0.1-0.4,0-0.7,0.3-1L20.9-8.3
			c0.5-0.6,1.3-0.6,1.8-0.2L35.9,1.9c0.6,0.4,0.7,1.2,0.2,1.8L17.8,29c-0.2,0.3-0.5,0.5-0.8,0.5L5.1,31.7C5,31.7,4.9,31.7,4.8,31.7z
			 M4,16.7l1.9,12.2l10-1.9L33.3,3.2L22.1-5.6L4,16.7z"/>
	</g>
</g>
<g>
	<path class="st3" d="M36.2,32.7H1.6c-0.7,0-1.3-0.6-1.3-1.3V20.3c0-0.7,0.6-1.3,1.3-1.3c0.7,0,1.3,0.6,1.3,1.3v9.8h32V19.7
		c0-0.7,0.6-1.3,1.3-1.3s1.3,0.6,1.3,1.3v11.7C37.6,32.1,37,32.7,36.2,32.7z"/>
</g>
<g>
	<path class="st3" d="M18.6,24.2c-0.7,0-1.3-0.6-1.3-1.3V4.7c0-0.7,0.6-1.3,1.3-1.3s1.3,0.6,1.3,1.3v18.2
		C20,23.6,19.4,24.2,18.6,24.2z"/>
</g>
<g>
	<path class="st3" d="M24.7,10.9c-0.4,0-0.8-0.2-1.1-0.6l-4.7-6.7l-6,6.6c-0.5,0.5-1.3,0.6-1.9,0.1c-0.5-0.5-0.6-1.3-0.1-1.9
		l7.2-7.8c0.3-0.3,0.7-0.5,1.1-0.4c0.4,0,0.8,0.2,1,0.6l5.6,8.1c0.4,0.6,0.3,1.4-0.3,1.8C25.2,10.8,24.9,10.9,24.7,10.9z"/>
</g>
</svg>
