<?xml version="1.0" encoding="utf-8"?>
<!-- Generator: Adobe Illustrator 27.1.1, SVG Export Plug-In . SVG Version: 6.00 Build 0)  -->
<svg version="1.1" id="Layer_1" xmlns="http://www.w3.org/2000/svg" xmlns:xlink="http://www.w3.org/1999/xlink" x="0px" y="0px"
	 viewBox="0 0 47.6 47.7" style="enable-background:new 0 0 47.6 47.7;" xml:space="preserve">
<style type="text/css">
	.st0{fill:#009E96;}
	.st1{fill:#FFFFFF;}
</style>
<g>
	<circle class="st0" cx="23.8" cy="23.8" r="23.8"/>
</g>
<g>
	<path class="st1" d="M30.3,15.5l-3.5-2.2c-0.6-0.4-0.8-1.2-0.4-1.8c0.4-0.6,1.2-0.8,1.8-0.4l6.4,4.2c0.6,0.4,0.8,1.1,0.4,1.7
		l-3.7,6.7c-0.2,0.4-0.7,0.7-1.2,0.7c-0.2,0-0.4-0.1-0.6-0.2c-0.6-0.4-0.9-1.2-0.5-1.8l2.5-4.5c-2.7,0.6-8.9,2.5-11.7,7.5
		c-2.2,3.7-2.1,8.5,0.2,14.2c0.3,0.7-0.1,1.4-0.7,1.7c-0.2,0.1-0.3,0.1-0.5,0.1c-0.5,0-1-0.3-1.2-0.8c-2.6-6.5-2.7-12.1-0.1-16.5
		C20.7,18.6,26.9,16.4,30.3,15.5z"/>
</g>
</svg>
