<?xml version="1.0" encoding="utf-8"?>
<!-- Generator: Adobe Illustrator 27.1.1, SVG Export Plug-In . SVG Version: 6.00 Build 0)  -->
<svg version="1.1" id="Layer_1" xmlns="http://www.w3.org/2000/svg" xmlns:xlink="http://www.w3.org/1999/xlink" x="0px" y="0px"
	 viewBox="0 0 96.3 22.2" style="enable-background:new 0 0 96.3 22.2;" xml:space="preserve">
<style type="text/css">
	.st0{fill:#FFFFFF;}
	.st1{fill:#FF80A6;}
</style>
<g>
	<path class="st0" d="M91.7,13.9H80.5c-0.7,0-1.3-0.6-1.3-1.3s0.6-1.3,1.3-1.3h11.2c0.7,0,1.3,0.6,1.3,1.3
		C93,13.4,92.5,13.9,91.7,13.9z"/>
</g>
<g>
	<path class="st0" d="M87.1,20.7c-0.4,0-0.7-0.1-1-0.4c-0.5-0.5-0.5-1.4,0.1-1.9l6.6-6l-6.7-4.7c-0.6-0.4-0.7-1.2-0.3-1.8
		c0.4-0.6,1.2-0.7,1.8-0.3l8.1,5.6c0.3,0.2,0.5,0.6,0.6,1c0,0.4-0.1,0.8-0.4,1.1l-7.8,7.2C87.8,20.6,87.4,20.7,87.1,20.7z"/>
</g>
<g>
	<path class="st1" d="M2.6,21.8c-0.3,0-0.6,0-0.8-0.1s-0.4-0.2-0.5-0.3S1,21.1,0.9,20.8c-0.2-0.3-0.3-0.6-0.3-0.8
		c-0.1-0.3-0.2-0.7-0.4-1.2C-0.1,17.5-0.2,16.6,0,16c0.2-0.6,0.8-1,1.7-1.1c0.2,0,0.4-0.1,0.6-0.1c0.2,0,0.4,0,0.5,0.1
		C3,14.9,3.1,15,3.2,15c0.1,0,0.2,0.1,0.4,0.2c0.1,0.1,0.2,0.2,0.3,0.2s0.2,0.1,0.3,0.3S4.5,16,4.5,16c1.9,1.9,3.8,2.9,5.9,2.9
		c0.9,0,1.6-0.2,2.2-0.6s0.8-1,0.8-1.7c0-1-0.4-1.7-1.1-2.1c-0.7-0.4-2.1-0.9-4.1-1.2c-1-0.2-2-0.4-2.7-0.6
		c-0.8-0.2-1.5-0.5-2.2-0.9c-0.6-0.4-1.2-0.8-1.7-1.3c-0.4-0.5-0.8-1-1.1-1.7C0.2,8.1,0.1,7.4,0.1,6.5c0-2,0.7-3.6,2.1-4.8
		C3.6,0.5,5.4,0,7.6,0c1.9,0,3.4,0.5,4.5,1.4c0.1,0,0.2,0.1,0.3,0.2c0.1,0.1,0.2,0.1,0.2,0.2l0.1,0.1c0.1,0,0.1,0.1,0.1,0.1h0.1H13
		c0.1,0,0.2-0.1,0.3-0.3c0-0.2,0.1-0.4,0.1-0.6s0.1-0.4,0.2-0.6s0.4-0.3,0.7-0.3c0.6-0.1,1,0,1.2,0.3s0.6,0.9,1.1,1.9
		c0.3,0.7,0.6,1.3,0.7,1.9c0.1,0.5,0.2,1,0,1.4c-0.1,0.4-0.4,0.7-0.9,0.9c-0.7,0.3-1.3,0.3-1.8,0.3c-0.5-0.1-1-0.4-1.5-0.9
		c-0.9-0.9-1.7-1.6-2.6-2S8.6,3.4,7.4,3.4c-1,0-1.7,0.2-2.2,0.6S4.5,4.9,4.5,5.6s0.3,1.2,1,1.6c0.7,0.3,2,0.7,3.9,1
		c1.5,0.3,2.7,0.6,3.6,0.9c1,0.3,1.8,0.8,2.5,1.3c0.7,0.6,1.2,1.2,1.5,2.1c0.3,0.8,0.5,1.8,0.5,3c0,2.1-0.7,3.7-2,4.9
		s-3.1,1.8-5.3,1.8c-1,0-1.9-0.1-2.7-0.4c-0.8-0.3-1.6-0.7-2.3-1.2c-0.1-0.1-0.3-0.2-0.4-0.3c-0.2-0.1-0.3-0.2-0.4-0.2
		S4.3,20,4.1,20c-0.1,0-0.2,0-0.3,0s-0.2,0.1-0.3,0.3c0,0.2-0.1,0.3-0.1,0.5s0,0.4,0,0.6c0,0.2-0.1,0.4-0.3,0.5
		C3.2,21.7,2.9,21.8,2.6,21.8z"/>
	<path class="st1" d="M25.9,21.9c-1.6,0-2.9-0.4-3.6-1.3c-0.8-0.9-1.2-2.1-1.2-3.6c0-1.4,0.5-2.6,1.5-3.5s2.4-1.4,4.2-1.4
		c0.8,0,1.5,0.1,2.2,0.2c0.7,0.1,1.1,0.2,1.2,0.2c0.2,0,0.4-0.1,0.5-0.3s0.1-0.7,0.1-1.4c0-0.9-0.2-1.5-0.6-2
		c-0.4-0.4-1-0.6-1.8-0.6c-0.7,0-1.3,0.1-1.6,0.3c-0.4,0.2-0.6,0.6-0.7,1.1c-0.1,0.6-0.3,1-0.6,1.2s-0.7,0.3-1.2,0.3
		c-0.8,0-1.4-0.2-1.9-0.5s-0.7-0.8-0.7-1.5c0-1.1,0.6-2.1,1.8-2.9C25,5.1,27,4.6,29.6,4.6c2,0,3.5,0.5,4.5,1.4
		c1.1,0.9,1.6,2.2,1.6,3.9c0,0.9-0.1,2.1-0.2,3.8c-0.1,1.6-0.2,2.5-0.2,2.8c0,0.7,0.3,1.1,0.9,1.1c0.2,0,0.4-0.1,0.6-0.2
		c0.2-0.1,0.4-0.2,0.5-0.2c0.3,0,0.5,0.1,0.6,0.3s0.2,0.5,0.2,0.9s-0.1,0.7-0.2,1.1c-0.1,0.4-0.3,0.8-0.6,1.2s-0.6,0.7-1.1,0.9
		s-1,0.4-1.6,0.4c-1.2,0-2.2-0.4-2.8-1.3c-0.2-0.2-0.3-0.4-0.4-0.6c-0.1-0.2-0.2-0.4-0.3-0.5s-0.2-0.1-0.3-0.1s-0.3,0-0.3,0.1
		c-0.1,0.1-0.2,0.2-0.4,0.5c-0.1,0.2-0.3,0.4-0.4,0.6c-0.3,0.3-0.5,0.6-0.8,0.7c-0.2,0.2-0.6,0.3-1.1,0.5
		C27.2,21.8,26.6,21.9,25.9,21.9z M28.2,18.2c0.8,0,1.4-0.3,1.8-0.8c0.5-0.5,0.7-1.3,0.7-2.1c0-0.2,0-0.4-0.1-0.6
		c-0.1-0.1-0.1-0.3-0.2-0.3c-0.1-0.1-0.2-0.1-0.4-0.2c-0.2,0-0.3-0.1-0.5-0.1c-0.1,0-0.4,0-0.7,0c-0.8,0-1.4,0.2-1.8,0.6
		c-0.5,0.4-0.7,1-0.7,1.6c0,0.6,0.2,1.1,0.5,1.4C27.1,18.1,27.5,18.2,28.2,18.2z"/>
	<path class="st1" d="M46.9,21.7c-0.4,0-0.7,0-0.9,0s-0.5-0.1-0.7-0.2c-0.2-0.1-0.4-0.2-0.6-0.4c-0.1-0.2-0.3-0.4-0.4-0.7
		c-0.1-0.3-0.3-0.6-0.4-1.1c-0.1-0.4-0.4-1.1-0.8-2.3c-0.4-1.2-0.8-2.3-1.2-3.4c-0.4-1.1-0.7-2.1-1-2.9c-0.2-0.6-0.4-1-0.5-1.3
		C40.2,9.2,40,9,39.7,8.8c-0.2-0.1-0.4-0.3-0.5-0.5S39,7.8,39,7.3c0-1,0.3-1.6,0.9-1.8c0.6-0.3,1.8-0.4,3.5-0.4
		c1.6,0,2.7,0.1,3.3,0.4s0.9,0.8,0.9,1.6c0,0.4-0.1,0.7-0.2,0.9c-0.1,0.2-0.4,0.4-0.8,0.5c-0.2,0.2-0.4,0.3-0.4,0.5
		c-0.1,0.2-0.1,0.4,0,0.8c0.2,0.6,0.5,1.7,1,3.2s0.8,2.5,0.9,3c0.2,0.6,0.3,1,0.3,1.1s0.1,0.1,0.2,0.1c0.1,0,0.1,0,0.2,0l0.1-0.1
		L49,17c0,0,0.1-0.1,0.1-0.2c0-0.1,0.1-0.2,0.1-0.2c0-0.1,0-0.2,0.1-0.3c0-0.1,0.1-0.2,0.1-0.3c0.2-0.5,0.4-1.1,0.7-1.8
		s0.5-1.3,0.7-1.8s0.4-1.1,0.6-1.7c0.1-0.6,0.2-1,0.1-1.3c-0.1-0.3-0.3-0.5-0.7-0.7c-0.2-0.1-0.4-0.2-0.5-0.2
		c-0.1-0.1-0.3-0.2-0.4-0.4c-0.1-0.2-0.2-0.4-0.2-0.7c0-0.5,0.1-0.9,0.3-1.2c0.2-0.3,0.6-0.5,1.2-0.6c0.6-0.1,1.6-0.2,2.8-0.2
		s2,0.1,2.4,0.4C56.8,6.1,57,6.6,57,7.3c0,0.3-0.1,0.6-0.2,0.8c-0.1,0.2-0.2,0.4-0.3,0.5c-0.1,0.1-0.2,0.2-0.4,0.3
		c-0.3,0.2-0.5,0.5-0.7,0.7c-0.1,0.2-0.3,0.6-0.5,1.1c-0.8,2-1.9,5-3.4,9.1c-0.3,0.9-0.6,1.5-0.9,1.8c-0.3,0.3-0.8,0.4-1.5,0.4h-2.2
		V21.7z"/>
	<path class="st1" d="M66.8,22c-2.5,0-4.4-0.8-6-2.3c-1.5-1.6-2.3-3.5-2.3-6c0-1.2,0.2-2.3,0.5-3.4c0.4-1.1,0.9-2,1.5-2.9
		c0.7-0.8,1.5-1.5,2.6-2c1.1-0.5,2.3-0.8,3.6-0.8c2.3,0,4.1,0.7,5.4,2s2,3.1,2,5.4c0,1-0.2,1.7-0.5,2s-1.1,0.4-2.3,0.4h-7.5
		c-0.2,0-0.4,0-0.5,0.1s-0.2,0.2-0.1,0.4c0,0.8,0.5,1.5,1.4,2c0.9,0.5,2,0.8,3.4,0.8c1.5,0,2.8-0.3,3.9-1c0.1,0,0.2-0.1,0.3-0.2
		c0.1-0.1,0.2-0.1,0.3-0.2c0.1,0,0.1-0.1,0.2-0.1s0.2,0,0.3,0c0.3,0,0.5,0.2,0.6,0.5s0.1,0.7,0,1.1c-0.3,1.2-1.1,2.2-2.3,2.9
		C70,21.7,68.5,22,66.8,22z M65,11.9c1,0,1.8,0,2.3,0s1-0.1,1.3-0.2c0.3-0.1,0.5-0.2,0.6-0.3s0.1-0.3,0.1-0.5c0-0.8-0.3-1.5-0.8-2.1
		s-1.3-0.9-2.1-0.9c-1,0-1.8,0.3-2.3,1c-0.6,0.7-0.9,1.5-0.8,2.4c0,0.2,0.1,0.4,0.3,0.4C63.7,11.9,64.2,11.9,65,11.9z"/>
</g>
</svg>
