<?xml version="1.0" encoding="utf-8"?>
<!-- Generator: Adobe Illustrator 27.1.1, SVG Export Plug-In . SVG Version: 6.00 Build 0)  -->
<svg version="1.1" id="Layer_1" xmlns="http://www.w3.org/2000/svg" xmlns:xlink="http://www.w3.org/1999/xlink" x="0px" y="0px"
	 viewBox="0 0 27.9 23.8" style="enable-background:new 0 0 27.9 23.8;" xml:space="preserve">
<style type="text/css">
	.st0{fill:#CF86B9;}
	.st1{fill:#010101;}
	.st2{font-family:'Avenir-Medium';}
	.st3{font-size:4.9935px;}
</style>
<g>
	<g>
		<g>
			<path class="st0" d="M20.5,9.4c0.7-0.6,1.2-1.5,1.2-2.5c0-1.8-1.5-3.3-3.3-3.3c-0.2,0-0.5,0-0.7,0.1c0,0,0-0.1,0-0.1
				c0-1.7-1.4-3.1-3.1-3.1c-1.7,0-3.1,1.4-3.1,3.1c0,0.1,0,0.1,0,0.2c-0.3-0.1-0.7-0.2-1.1-0.2c-1.8,0-3.3,1.5-3.3,3.3
				c0,1,0.4,1.9,1.1,2.5c-1,0.7-1.7,1.9-1.7,3.2v2.7l7.9,0v0H22v-2.9C22,11.2,21.4,10.1,20.5,9.4z M14.6,1.8c1.1,0,1.9,0.9,1.9,1.9
				s-0.9,1.9-1.9,1.9c-1.1,0-1.9-0.9-1.9-1.9S13.5,1.8,14.6,1.8z M14.4,15c-0.1,0-0.1,0-0.2,0c-0.3,0-0.6-0.2-0.8-0.4
				c-0.2-0.2-0.5-0.4-0.8-0.6l-4.8,0v-1.4c0-1.3,0.9-2.3,2.2-2.5c0-0.4,0.1-0.8,0.3-1.1c0,0,0,0,0,0C9.3,8.9,8.4,8,8.4,7
				c0-0.7,0.4-1.3,0.9-1.6c0.3-0.2,0.7-0.4,1.2-0.4c1.1,0,1.9,0.9,1.9,1.9c0,0.1,0,0.2,0,0.3c0.2-0.1,0.5-0.1,0.7-0.1
				c0.5,0,0.9,0.2,1.3,0.4c0.5-0.3,1-0.4,1.5-0.4c0.2,0,0.3,0,0.5,0.1c0-0.1,0-0.2,0-0.3c0-0.5,0.2-1,0.6-1.4
				c0.4-0.4,0.8-0.6,1.4-0.6c0.4,0,0.8,0.1,1.1,0.4c0.2,0.1,0.3,0.3,0.5,0.5c0.2,0.3,0.3,0.7,0.3,1.1S20.2,7.7,20,8
				c-0.2,0.3-0.6,0.6-1,0.7c0,0,0,0,0,0c-0.2,0.1-0.4,0.1-0.6,0.1c0.2,0.3,0.3,0.7,0.3,1.1l0,0c0,0.1,0,0.1,0,0.2
				c1.1,0.2,1.9,1.2,1.9,2.4v1.6h-4.4l-0.9,0.7C15,14.9,14.7,15,14.4,15z"/>
		</g>
		<g>
			<path class="st0" d="M16.4,12.2c0.3-0.3,0.7-0.6,0.9-0.9c0.1-0.3,0.2-0.6,0.2-0.9c0-0.1,0-0.2,0-0.3C17.4,9.6,17.2,9.3,17,9
				c-0.3-0.3-0.6-0.5-1-0.5c-0.7,0-1.2,0.5-1.5,1.1c-0.2-0.6-0.8-1-1.4-1c-1.4-0.1-2.1,1.8-1.3,2.9c0.3,0.4,0.7,0.7,1.1,0.9
				c0.5,0.4,1.1,0.8,1.6,1.3c0,0,0.1,0,0.1,0c0,0,0.1,0,0.1,0C15.1,13.1,15.8,12.6,16.4,12.2z"/>
		</g>
	</g>
	<text transform="matrix(1 0 0 1 1.4652 21.7153)" class="st1 st2 st3">Community</text>
</g>
</svg>
