<?xml version="1.0" encoding="utf-8"?>
<!-- Generator: Adobe Illustrator 27.1.1, SVG Export Plug-In . SVG Version: 6.00 Build 0)  -->
<svg version="1.1" id="Layer_1" xmlns="http://www.w3.org/2000/svg" xmlns:xlink="http://www.w3.org/1999/xlink" x="0px" y="0px"
	 viewBox="0 0 37.6 32.5" style="enable-background:new 0 0 37.6 32.5;" xml:space="preserve">
<style type="text/css">
	.st0{fill:#FFFFFF;}
</style>
<g>
	<path class="st0" d="M36,32.5H1.4c-0.7,0-1.3-0.6-1.3-1.3V20c0-0.7,0.6-1.3,1.3-1.3c0.7,0,1.3,0.6,1.3,1.3v9.8h32V19.4
		c0-0.7,0.6-1.3,1.3-1.3s1.3,0.6,1.3,1.3v11.7C37.3,31.9,36.7,32.5,36,32.5z"/>
</g>
<g>
	<path class="st0" d="M18.4,20.7c-0.7,0-1.3-0.6-1.3-1.3V1.2c0-0.7,0.6-1.3,1.3-1.3s1.3,0.6,1.3,1.3v18.2
		C19.7,20.2,19.1,20.7,18.4,20.7z"/>
</g>
<g>
	<path class="st0" d="M18.8,23.9c-0.4,0-0.7-0.2-1-0.4l-7.1-7.8c-0.5-0.5-0.5-1.4,0.1-1.9c0.5-0.5,1.4-0.5,1.9,0.1l6,6.6l4.7-6.7
		c0.4-0.6,1.2-0.7,1.8-0.3s0.7,1.2,0.3,1.8l-5.6,8.1C19.7,23.7,19.3,23.9,18.8,23.9C18.9,23.9,18.8,23.9,18.8,23.9z"/>
</g>
</svg>
