<?xml version="1.0" encoding="utf-8"?>
<!-- Generator: Adobe Illustrator 27.1.1, SVG Export Plug-In . SVG Version: 6.00 Build 0)  -->
<svg version="1.1" id="Layer_1" xmlns="http://www.w3.org/2000/svg" xmlns:xlink="http://www.w3.org/1999/xlink" x="0px" y="0px"
	 viewBox="0 0 48.6 36.1" style="enable-background:new 0 0 48.6 36.1;" xml:space="preserve">
<style type="text/css">
	.st0{display:none;}
	.st1{display:inline;}
	.st2{fill:#FF79FF;}
	.st3{fill:#FFFFFF;}
	.st4{fill:#4DCBC5;}
</style>
<g class="st0">
	<g class="st1">
		<polygon class="st2" points="11.7,20.5 25.9,30.9 42.5,7.1 31.1,-1.5 		"/>
	</g>
	<g class="st1">
		<path class="st3" d="M13.9,35.9c-0.3,0-0.5-0.1-0.8-0.2c-0.3-0.2-0.5-0.5-0.5-0.9l-2.2-14.1c-0.1-0.4,0-0.7,0.3-1L30-4.1
			c0.5-0.6,1.3-0.6,1.8-0.2L45,6.1c0.6,0.4,0.7,1.2,0.2,1.8L26.9,33.2c-0.2,0.3-0.5,0.5-0.8,0.5l-11.9,2.2
			C14.1,35.9,14,35.9,13.9,35.9z M13.1,20.9L15,33.1l10-1.9L42.4,7.4L31.2-1.4L13.1,20.9z"/>
	</g>
</g>
<g>
	<g>
		<path class="st3" d="M46.2,10.4c2.7,2.4,3,6.6,0.6,9.4L32.5,35.9h-10l0,0h-1.7v-1.3L13,27.8c-1.3-1.2-2.1-2.8-2.2-4.6
			s0.5-3.5,1.6-4.8L26.8,2.1c2.4-2.7,6.6-3,9.3-0.6L46.2,10.4z M44.2,17.5c1.2-1.3,1-3.3-0.3-4.5l-10-8.9c-1.3-1.2-3.3-1-4.5,0.3
			L20,15l14.8,13.1L44.2,17.5z M30.9,32.5l1.6-1.8L17.7,17.6l-2.8,3.2c-0.6,0.7-0.8,1.5-0.8,2.3c0.1,0.8,0.4,1.6,1.1,2.2l8.2,7.3
			L30.9,32.5L30.9,32.5z"/>
	</g>
	<g>
		<path class="st4" d="M43.9,13c1.3,1.2,1.4,3.2,0.3,4.5l-9.4,10.6L20,15l9.4-10.6c1.2-1.3,3.2-1.5,4.5-0.3L43.9,13z"/>
	</g>
	<g>
		<rect x="13.4" y="32.5" class="st3" width="3.7" height="3.4"/>
	</g>
	<g>
		<rect x="6.1" y="32.5" class="st3" width="3.7" height="3.4"/>
	</g>
	<g>
		<rect x="0.7" y="32.5" class="st3" width="1.7" height="3.4"/>
	</g>
</g>
</svg>
