<?xml version="1.0" encoding="utf-8"?>
<!-- Generator: Adobe Illustrator 27.1.1, SVG Export Plug-In . SVG Version: 6.00 Build 0)  -->
<svg version="1.1" id="Layer_1" xmlns="http://www.w3.org/2000/svg" xmlns:xlink="http://www.w3.org/1999/xlink" x="0px" y="0px"
	 viewBox="0 0 29.5 25.5" style="enable-background:new 0 0 29.5 25.5;" xml:space="preserve">
<style type="text/css">
	.st0{display:none;}
	.st1{display:inline;}
	.st2{fill:#FF79FF;}
	.st3{fill:#FFFFFF;}
	.st4{fill:#4DCBC5;}
	.st5{fill:#92B500;}
</style>
<g class="st0">
	<g class="st1">
		<polygon class="st2" points="-1.6,16.2 12.6,26.6 29.2,2.8 17.8,-5.8 		"/>
	</g>
	<g class="st1">
		<path class="st3" d="M0.6,31.6c-0.3,0-0.5-0.1-0.8-0.2c-0.3-0.2-0.5-0.5-0.5-0.9l-2.2-14.1c-0.1-0.4,0-0.7,0.3-1L16.7-8.4
			C17.2-9,18-9,18.5-8.6L31.7,1.8c0.6,0.4,0.7,1.2,0.2,1.8L13.6,28.9c-0.2,0.3-0.5,0.5-0.8,0.5L0.9,31.6C0.8,31.6,0.7,31.6,0.6,31.6
			z M-0.2,16.6l1.9,12.2l10-1.9L29.1,3.1L17.9-5.7L-0.2,16.6z"/>
	</g>
</g>
<g>
	<circle class="st2" cx="14.9" cy="8.1" r="7.9"/>
</g>
<g>
	<circle class="st4" cx="8" cy="17" r="7.9"/>
</g>
<g>
	<circle class="st5" cx="21.5" cy="17.5" r="7.9"/>
</g>
</svg>
