<?xml version="1.0" encoding="utf-8"?>
<!-- Generator: Adobe Illustrator 27.1.1, SVG Export Plug-In . SVG Version: 6.00 Build 0)  -->
<svg version="1.1" id="Layer_1" xmlns="http://www.w3.org/2000/svg" xmlns:xlink="http://www.w3.org/1999/xlink" x="0px" y="0px"
	 viewBox="0 0 14.5 13.8" style="enable-background:new 0 0 14.5 13.8;" xml:space="preserve">
<style type="text/css">
	.st0{fill:#B2D235;}
</style>
<g>
	<g>
		<g>
			<path class="st0" d="M12.3,7.2c0,3.1-2.5,5.6-5.6,5.6s-5.6-2.5-5.6-5.6s2.5-5.6,5.6-5.6c0.8,0,1.6,0.2,2.3,0.5L8.8,1
				C8.2,0.7,7.5,0.6,6.7,0.6c-3.6,0-6.6,3-6.6,6.6s2.9,6.6,6.6,6.6s6.6-2.9,6.6-6.6c0-0.5-0.1-1-0.2-1.5L12,5.4
				C12.2,5.9,12.3,6.5,12.3,7.2z"/>
		</g>
		<g>
			<path class="st0" d="M2.3,7.2c0,2.4,2,4.4,4.4,4.4s4.4-2,4.4-4.4c0-0.5-0.1-1-0.3-1.4L10,6.5c0,0.2,0.1,0.5,0.1,0.7
				c0,0.1,0,0.2,0,0.3c0,0.2,0,0.4,0,0.6c0,0.5-0.3,1-0.6,1.5C9.4,9.7,9.4,9.8,9.3,9.8c-0.3,0.3-0.7,0.5-1.1,0.7
				c-0.1,0-0.3,0.1-0.4,0.1c-0.3,0.1-0.7,0.2-1.1,0.2c-1.9,0-3.5-1.6-3.5-3.5c0-0.7,0.2-1.4,0.6-1.9c0.3-0.7,1-1.2,1.7-1.4
				c0.1,0,0.3-0.1,0.4-0.1l0,0H6c0.2,0,0.4-0.1,0.6-0.1C7,3.8,7.4,3.9,7.7,4l0.9-0.8C8.1,2.9,7.4,2.7,6.7,2.7
				C4.3,2.7,2.3,4.7,2.3,7.2z"/>
		</g>
		<g>
			<path class="st0" d="M13.9,1.8l-1-1.1l-1,0.9L11.6,0L9.7,0.3l0.4,2.9L7.4,5.6c0-0.2-0.1-0.3-0.2-0.4C6.4,4.2,4.8,5,4.6,6
				c-0.1,0.4,0,0.8,0,1.2c0.1,0.6,0.1,1.2,0.1,1.7V9h0.1c0.7,0.1,1.3,0.2,2,0.3c0.4,0.1,0.8,0.1,1.1,0c0.3-0.1,0.5-0.2,0.7-0.4
				c0.1-0.1,0.1-0.1,0.1-0.2c0.2-0.3,0.4-0.6,0.4-0.9c0-0.3-0.1-0.7-0.3-1c0,0-0.2-0.1-0.4-0.2l2.8-2.5L14,4.9L14.5,3l-1.6-0.5
				L13.9,1.8z"/>
		</g>
	</g>
</g>
</svg>
