<?xml version="1.0" encoding="utf-8"?>
<!-- Generator: Adobe Illustrator 27.1.1, SVG Export Plug-In . SVG Version: 6.00 Build 0)  -->
<svg version="1.1" id="Layer_1" xmlns="http://www.w3.org/2000/svg" xmlns:xlink="http://www.w3.org/1999/xlink" x="0px" y="0px"
	 viewBox="0 0 16.2 14.4" style="enable-background:new 0 0 16.2 14.4;" xml:space="preserve">
<style type="text/css">
	.st0{fill:#50C1B4;}
</style>
<g>
	<g>
		<path class="st0" d="M14.3,0.5C14.2,0.2,14,0,13.7,0H2.9C2.6,0,2.4,0.2,2.3,0.4L0.2,5.6l0,0C0.1,5.9,0,6.2,0,6.6
			c0,0.9,0.7,1.7,1.6,2v5c0,0.4,0.3,0.7,0.7,0.7h11.8c0.4,0,0.7-0.3,0.7-0.7V8.4c0.7-0.3,1.3-1,1.3-1.9c0-0.3-0.1-0.6-0.2-0.9
			L14.3,0.5z M1.3,6.6c0-0.1,0-0.2,0.1-0.3C1.5,6.2,1.5,6.1,1.5,6l1.8-4.6h1.2L2.7,6.9C2.6,7.1,2.4,7.2,2.1,7.2
			C1.7,7.2,1.3,6.9,1.3,6.6z M7.4,1.3L7.5,7v0.1C7.1,7.3,6.6,7.2,6.4,6.9C6.3,6.7,6.1,6.6,5.8,6.6l0,0c-0.2,0-0.4,0.1-0.6,0.3
			C5,7.3,4.4,7.3,4.1,7L6,1.3H7.4z M10,1.3l2,5.8c-0.3,0.2-0.7,0.1-1-0.2c-0.1-0.1-0.3-0.2-0.5-0.2l0,0c-0.2,0-0.4,0.1-0.5,0.2
			C9.7,7.3,9.1,7.3,8.8,7L8.7,1.3H10z M2.9,8.4C3,8.3,3.2,8.3,3.3,8.2c0.7,0.5,1.8,0.5,2.5,0c0.7,0.5,1.7,0.5,2.4,0
			c0.7,0.4,1.6,0.5,2.3,0c0.7,0.4,1.6,0.4,2.2,0c0.2,0.1,0.4,0.2,0.6,0.3v4.3H2.9V8.4z M13.9,7.2c-0.2,0-0.4-0.1-0.6-0.3l-1.9-5.7
			h1.7l1.3,4.5c0,0.1,0,0.2,0.1,0.3c0.1,0.1,0.1,0.2,0.1,0.3C14.6,6.9,14.3,7.2,13.9,7.2z"/>
	</g>
</g>
</svg>
