<?xml version="1.0" encoding="utf-8"?>
<!-- Generator: Adobe Illustrator 27.1.1, SVG Export Plug-In . SVG Version: 6.00 Build 0)  -->
<svg version="1.1" id="Layer_1" xmlns="http://www.w3.org/2000/svg" xmlns:xlink="http://www.w3.org/1999/xlink" x="0px" y="0px"
	 viewBox="0 0 34.1 43.4" style="enable-background:new 0 0 34.1 43.4;" xml:space="preserve">
<style type="text/css">
	.st0{display:none;}
	.st1{display:inline;}
	.st2{fill:#FF79FF;}
	.st3{fill:#FFFFFF;}
	.st4{fill:#FFFE22;}
	.st5{fill:#4DCBC5;}
</style>
<g class="st0">
	<g class="st1">
		<polygon class="st2" points="2,26.7 16.2,37.1 32.8,13.3 21.4,4.7 		"/>
	</g>
	<g class="st1">
		<path class="st3" d="M4.2,42.1c-0.3,0-0.5-0.1-0.8-0.2c-0.3-0.2-0.5-0.5-0.5-0.9L0.7,26.9c-0.1-0.4,0-0.7,0.3-1L20.3,2.1
			c0.5-0.6,1.3-0.6,1.8-0.2l13.2,10.4c0.6,0.4,0.7,1.2,0.2,1.8L17.2,39.4c-0.2,0.3-0.5,0.5-0.8,0.5L4.5,42.1
			C4.4,42.1,4.3,42.1,4.2,42.1z M3.4,27.1l1.9,12.2l10-1.9l17.4-23.8L21.5,4.8L3.4,27.1z"/>
	</g>
</g>
<g>
	<g>
		<path class="st2" d="M18.8,11.6c0.4-0.8,0.6-1.8,0.5-2.9c0-0.2-0.1-0.5-0.1-0.8c-0.2-1.3-0.8-2.4-1.6-3.2
			c-0.8-0.8-1.8-1.3-2.8-1.4c-0.2,0-0.4,0-0.6,0c-1.4,0.1-2.7,0.9-3.6,2L10,6L9.3,5.4C8.5,4.6,7.5,4.1,6.4,3.9c-0.2,0-0.4,0-0.6,0
			C4,4,2.4,5,1.6,6.7c-1,2.1-0.8,4.7,0.5,6.4c0.8,1,1.9,1.8,3,2.5l0.3,0.2c1.7,1.1,3.2,2.2,4.7,3.4c0.1,0.1,0.2,0.2,0.5,0.2h0.1
			c0.2,0,0.4-0.2,0.5-0.2l5-4.4C17.2,13.8,18.3,12.8,18.8,11.6z"/>
	</g>
	<path class="st4" d="M24.6,43.1l-4.2-2.2c-0.3-0.2-0.6-0.2-0.9,0l-4.2,2.2c-0.7,0.4-1.6-0.2-1.4-1l0.8-4.7c0.1-0.3-0.1-0.6-0.3-0.9
		L11,33.2c-0.6-0.6-0.3-1.6,0.5-1.7l4.7-0.7c0.3,0,0.6-0.2,0.7-0.5L19,26c0.4-0.7,1.4-0.7,1.8,0l2.1,4.3c0.1,0.3,0.4,0.5,0.7,0.5
		l4.7,0.7c0.8,0.1,1.1,1.1,0.5,1.7l-3.4,3.3c-0.2,0.2-0.3,0.6-0.3,0.9l0.8,4.7C26.2,42.9,25.3,43.5,24.6,43.1z"/>
	<polygon class="st3" points="25.9,3.6 23.8,7.6 21.5,3.5 23.6,0 	"/>
	<polygon class="st3" points="34.1,26.1 32,30.2 29.7,26.1 31.8,22.6 	"/>
	<polygon class="st3" points="4.2,21.8 2,25.8 -0.2,21.7 1.9,18.3 	"/>
	<polygon class="st3" points="14.3,25.2 12.2,29.2 9.9,25.1 12.1,21.6 	"/>
	<polygon class="st3" points="7.6,35.5 5.4,39.5 3.1,35.4 5.3,31.9 	"/>
	<circle class="st5" cx="26.2" cy="16" r="5.9"/>
</g>
</svg>
