<?xml version="1.0" encoding="utf-8"?>
<!-- Generator: Adobe Illustrator 27.1.1, SVG Export Plug-In . SVG Version: 6.00 Build 0)  -->
<svg version="1.1" id="Layer_1" xmlns="http://www.w3.org/2000/svg" xmlns:xlink="http://www.w3.org/1999/xlink" x="0px" y="0px"
	 viewBox="0 0 34.2 32.6" style="enable-background:new 0 0 34.2 32.6;" xml:space="preserve">
<style type="text/css">
	.st0{fill:#92B500;}
	.st1{fill:#D7A600;}
	.st2{fill:#FFFFFF;}
	.st3{display:none;}
	.st4{display:inline;}
	.st5{fill:#FF79FF;}
</style>
<g>
	<g>
		<g>
			<polygon class="st0" points="14.1,23.3 7.5,17.5 1.7,22.6 -0.1,20.7 7.5,14 14.3,20 27.5,11.2 33.3,14.2 32.2,16.6 27.6,14.3 			
				"/>
		</g>
		<g>
			<circle class="st1" cx="14" cy="9.6" r="2.1"/>
		</g>
	</g>
	<g>
		<path class="st2" d="M24.2,32.6h-14c-5.5,0-9.9-4.4-9.9-9.9V10.1c0-5.5,4.4-9.9,9.9-9.9h14c5.5,0,9.9,4.4,9.9,9.9v12.6
			C34.1,28.1,29.6,32.6,24.2,32.6z M10.1,2.9c-4,0-7.3,3.3-7.3,7.3v12.6c0,4,3.3,7.3,7.3,7.3h14c4,0,7.3-3.3,7.3-7.3V10.1
			c0-4-3.3-7.3-7.3-7.3L10.1,2.9L10.1,2.9z"/>
	</g>
</g>
<g class="st3">
	<g class="st4">
		<polygon class="st5" points="0.7,21.3 14.9,31.7 31.5,7.9 20.1,-0.7 		"/>
	</g>
	<g class="st4">
		<path class="st2" d="M2.9,36.7c-0.3,0-0.5-0.1-0.8-0.2c-0.3-0.2-0.5-0.5-0.5-0.9l-2.2-14.1c-0.1-0.4,0-0.7,0.3-1L19-3.3
			c0.5-0.6,1.3-0.6,1.8-0.2L34,6.9c0.6,0.4,0.7,1.2,0.2,1.8L15.9,34c-0.2,0.3-0.5,0.5-0.8,0.5L3.2,36.7C3.1,36.7,3,36.7,2.9,36.7z
			 M2.1,21.7L4,33.9L14,32L31.4,8.2L20.2-0.6L2.1,21.7z"/>
	</g>
</g>
</svg>
