<?xml version="1.0" encoding="utf-8"?>
<!-- Generator: Adobe Illustrator 27.1.1, SVG Export Plug-In . SVG Version: 6.00 Build 0)  -->
<svg version="1.1" id="Layer_1" xmlns="http://www.w3.org/2000/svg" xmlns:xlink="http://www.w3.org/1999/xlink" x="0px" y="0px"
	 viewBox="0 0 33.8 32.6" style="enable-background:new 0 0 33.8 32.6;" xml:space="preserve">
<style type="text/css">
	.st0{fill:#92B500;}
	.st1{fill:#D7A600;}
	.st2{fill:#FFFFFF;}
</style>
<g>
	<g>
		<g>
			<polygon class="st0" points="13.8,23.2 7.2,17.4 1.4,22.5 -0.4,20.6 7.2,13.9 14,19.9 27.2,11.1 33,14.1 31.9,16.5 27.3,14.2 			
				"/>
		</g>
		<g>
			<circle class="st1" cx="13.7" cy="9.5" r="2.1"/>
		</g>
	</g>
	<g>
		<path class="st2" d="M23.9,32.5h-14c-5.5,0-9.9-4.4-9.9-9.9V10c0-5.5,4.4-9.9,9.9-9.9h14c5.5,0,9.9,4.4,9.9,9.9v12.6
			C33.8,28,29.3,32.5,23.9,32.5z M9.8,2.8c-4,0-7.3,3.3-7.3,7.3v12.6c0,4,3.3,7.3,7.3,7.3h14c4,0,7.3-3.3,7.3-7.3V10
			c0-4-3.3-7.3-7.3-7.3L9.8,2.8L9.8,2.8z"/>
	</g>
</g>
</svg>
