<?xml version="1.0" encoding="utf-8"?>
<!-- Generator: Adobe Illustrator 27.1.1, SVG Export Plug-In . SVG Version: 6.00 Build 0)  -->
<svg version="1.1" id="Layer_1" xmlns="http://www.w3.org/2000/svg" xmlns:xlink="http://www.w3.org/1999/xlink" x="0px" y="0px"
	 viewBox="0 0 38.5 32.6" style="enable-background:new 0 0 38.5 32.6;" xml:space="preserve">
<style type="text/css">
	.st0{fill:#FFFFFF;}
	.st1{fill:#FF79FF;}
	.st2{fill:#92B500;}
</style>
<g>
	<g id="XMLID_00000082364533566111169740000010754643943916039307_">
		<g>
			<g>
				<path class="st0" d="M36.6,24.5v3.3H14.1c-1,2.8-3.7,4.9-6.8,4.9c-4,0-7.2-3.2-7.2-7.2s3.2-7.2,7.2-7.2c3.7,0,6.7,2.8,7.1,6.3
					L36.6,24.5L36.6,24.5z M11.3,25.5c0-2.2-1.8-3.9-3.9-3.9c-2.2,0-3.9,1.8-3.9,3.9c0,2.2,1.8,3.9,3.9,3.9S11.3,27.6,11.3,25.5z"/>
			</g>
			<g>
				<path class="st0" d="M31.1,0.1c4,0,7.2,3.2,7.2,7.2s-3.3,7.2-7.2,7.2c-3.2,0-5.8-2.1-6.8-4.9H1.8V6.3H24
					C24.4,2.8,27.4,0.1,31.1,0.1z M35,7.3c0-2.2-1.8-3.9-3.9-3.9c-2.2,0-3.9,1.8-3.9,3.9c0,2.2,1.8,3.9,3.9,3.9
					C33.2,11.3,35,9.5,35,7.3z"/>
			</g>
			<g>
				<path class="st1" d="M31.1,3.4c2.2,0,3.9,1.8,3.9,3.9c0,2.2-1.8,3.9-3.9,3.9c-2.2,0-3.9-1.8-3.9-3.9C27.1,5.2,28.9,3.4,31.1,3.4
					z"/>
			</g>
			<g>
				<path class="st2" d="M7.3,21.5c2.2,0,3.9,1.8,3.9,3.9c0,2.2-1.8,3.9-3.9,3.9c-2.2,0-3.9-1.8-3.9-3.9C3.4,23.3,5.2,21.5,7.3,21.5
					z"/>
			</g>
		</g>
	</g>
</g>
</svg>
