<?xml version="1.0" encoding="utf-8"?>
<!-- Generator: Adobe Illustrator 27.1.1, SVG Export Plug-In . SVG Version: 6.00 Build 0)  -->
<svg version="1.1" id="Layer_1" xmlns="http://www.w3.org/2000/svg" xmlns:xlink="http://www.w3.org/1999/xlink" x="0px" y="0px"
	 viewBox="0 0 26 32.3" style="enable-background:new 0 0 26 32.3;" xml:space="preserve">
<style type="text/css">
	.st0{display:none;}
	.st1{display:inline;}
	.st2{fill:#FF79FF;}
	.st3{fill:#FFFFFF;}
	.st4{fill:#FDCC00;}
</style>
<g class="st0">
	<g class="st1">
		<polygon class="st2" points="-0.6,25.7 13.7,36.1 30.2,12.3 18.9,3.7 		"/>
	</g>
	<g class="st1">
		<path class="st3" d="M1.6,41.1c-0.3,0-0.5-0.1-0.8-0.2c-0.3-0.2-0.5-0.5-0.5-0.9l-2.2-14.1c-0.1-0.4,0-0.7,0.3-1L17.7,1.1
			c0.5-0.6,1.3-0.6,1.8-0.2l13.2,10.4c0.6,0.4,0.7,1.2,0.2,1.8L14.6,38.4c-0.2,0.3-0.5,0.5-0.8,0.5L1.9,41.1
			C1.8,41.1,1.7,41.1,1.6,41.1z M0.8,26.1l1.9,12.2l10-1.9l17.4-23.8L18.9,3.8L0.8,26.1z"/>
	</g>
</g>
<path class="st4" d="M22.1,32.3c-0.7-1.4-1.8-2.8-3.4-4c1.6-1.3,2.6-2.7,3.4-4c0.7,1.4,1.8,2.8,3.4,4C23.9,29.5,22.9,30.9,22.1,32.3
	z"/>
<path class="st4" d="M16.7,10.5c-4.6,3.1-7,7.1-8.3,10.4c-1.3-3.3-3.7-7.3-8.3-10.4C4.7,7.3,7.1,3.4,8.4,0
	C9.7,3.4,12.1,7.3,16.7,10.5z"/>
</svg>
