<?xml version="1.0" encoding="utf-8"?>
<!-- Generator: Adobe Illustrator 27.1.1, SVG Export Plug-In . SVG Version: 6.00 Build 0)  -->
<svg version="1.1" id="Layer_1" xmlns="http://www.w3.org/2000/svg" xmlns:xlink="http://www.w3.org/1999/xlink" x="0px" y="0px"
	 viewBox="0 0 35.3 40.7" style="enable-background:new 0 0 35.3 40.7;" xml:space="preserve">
<style type="text/css">
	.st0{fill:#FF79FF;}
	.st1{fill:#FFFFFF;}
</style>
<g>
	<g>
		<polygon class="st0" points="1.5,25 15.7,35.4 32.3,11.6 20.9,3 		"/>
	</g>
	<g>
		<path class="st1" d="M3.7,40.4c-0.3,0-0.5-0.1-0.8-0.2c-0.3-0.2-0.5-0.5-0.5-0.9L0.2,25.2c-0.1-0.4,0-0.7,0.3-1L19.8,0.4
			c0.5-0.6,1.3-0.6,1.8-0.2l13.2,10.4c0.6,0.4,0.7,1.2,0.2,1.8L16.7,37.7c-0.2,0.3-0.5,0.5-0.8,0.5L4,40.4
			C3.9,40.4,3.8,40.4,3.7,40.4z M2.9,25.4l1.9,12.2l10-1.9l17.4-23.8L21,3.1L2.9,25.4z"/>
	</g>
</g>
</svg>
