<?xml version="1.0" encoding="utf-8"?>
<!-- Generator: Adobe Illustrator 27.1.1, SVG Export Plug-In . SVG Version: 6.00 Build 0)  -->
<svg version="1.1" id="Layer_1" xmlns="http://www.w3.org/2000/svg" xmlns:xlink="http://www.w3.org/1999/xlink" x="0px" y="0px"
	 viewBox="0 0 15.3 15.3" style="enable-background:new 0 0 15.3 15.3;" xml:space="preserve">
<style type="text/css">
	.st0{fill:#00DCC3;}
</style>
<g>
	<g>
		<path d="M7.7,15.3C3.4,15.3,0,11.9,0,7.7S3.4,0,7.7,0s7.7,3.4,7.7,7.7S11.9,15.3,7.7,15.3z M7.7,1.1C4,1.1,1.1,4,1.1,7.7
			s3,6.6,6.6,6.6s6.6-3,6.6-6.6S11.3,1.1,7.7,1.1z"/>
	</g>
	<g>
		<path class="st0" d="M7.5,12.3c-0.4,0-0.8-0.4-0.8-0.8V4.1c0-0.4,0.4-0.8,0.8-0.8s0.8,0.4,0.8,0.8v7.4C8.3,12,7.9,12.3,7.5,12.3z"
			/>
	</g>
	<g>
		<path class="st0" d="M11.2,8.6H3.8C3.4,8.6,3,8.2,3,7.8C3,7.4,3.4,7,3.8,7h7.4C11.7,7,12,7.4,12,7.8C12,8.2,11.7,8.6,11.2,8.6z"/>
	</g>
</g>
</svg>
